# xmcd
#
# Track frame offsets:
#	150
#	21990
#	40522
#	65045
#	85865
#	107575
#	134522
#	156230
#	185850
#	206340
#	222750
#	266467
#	280417
#	295335
#
# Disc length: 4155 seconds
# Revision: 0
# Processed by: cddbd v1.5.2PL0 Copyright (c) Steve Scherf et al.
# Submitted via: dBpowerAMP V12.0
#
DISCID=d510390e
DTITLE=Van Morrison - Live at the  Orphanage
DYEAR=1900
DGENRE=
TTITLE0=Heathrow Shuffle
TTITLE1=Ain't Noyhing You Can Do
TTITLE2=Street Choir
TTITLE3=I Believe To My Soul
TTITLE4=Snow in San Anselmo
TTITLE5=Moondance
TTITLE6=Into The Mystic
TTITLE7=T For Texas
TTITLE8=Moondance
TTITLE9=Misty
TTITLE10=Liitle Girl - He Ain't Give You None
TTITLE11=I Shall Sing
TTITLE12=Real Real Gone
TTITLE13=Ain't Nothing You Can Do
EXTD=
EXTT0=
EXTT1=
EXTT2=
EXTT3=
EXTT4=
EXTT5=
EXTT6=
EXTT7=
EXTT8=
EXTT9=
EXTT10=
EXTT11=
EXTT12=
EXTT13=
PLAYORDER=
